<svg width="84" height="101" viewBox="0 0 84 101" fill="none" xmlns="http://www.w3.org/2000/svg">
<g id="Group">
<path id="Vector" d="M43.6197 48.5903V100.35C23.6897 88.8403 6.87973 65.1203 0.719727 39.8203L43.6197 48.5903Z" fill="url(#paint0_linear_4210_805)"/>
<path id="Vector_2" d="M43.6201 100.35L47.6601 97.9901L47.5901 46.8101L43.6201 48.5901V100.35Z" fill="#AFB6E5"/>
<path id="Vector_3" d="M0.729492 39.82L4.75949 37.46L47.6595 46.24L43.6195 48.59L0.729492 39.82Z" fill="#E5E9FF"/>
<path id="Vector_4" d="M81.5902 51.0502C75.7602 27.0802 56.4802 4.6802 38.5202 1.0102C33.1302 -0.0898026 28.4702 0.630199 24.7502 2.8202L24.7302 2.7802L19.5202 6.6502L19.8702 7.2102C14.9002 13.7602 13.3902 24.6202 16.5802 37.7602L41.9502 42.9502L49.0802 54.4902V83.6302C52.8602 85.8102 56.0502 87.0702 59.6402 87.8102C63.3102 88.5602 66.6402 88.4602 69.5602 87.6302L70.0902 88.5002C70.0902 88.5002 75.0902 84.8902 75.7002 84.3602L76.4702 83.7902L76.4202 83.7102C82.8602 77.5502 85.1602 65.7102 81.5902 51.0502Z" fill="url(#paint1_linear_4210_805)"/>
<path id="Vector_5" d="M45.06 47.4301L12.56 40.7801C6.72995 16.8101 16.55 0.360131 34.5 4.03013C52.45 7.70013 71.73 30.1101 77.57 54.0701C83.4 78.0401 73.58 94.4901 55.63 90.8201C52.04 90.0901 48.84 88.8201 45.07 86.6401V47.4301H45.06Z" fill="url(#paint2_linear_4210_805)"/>
</g>
<defs>
<linearGradient id="paint0_linear_4210_805" x1="-4.94727" y1="86.534" x2="59.4695" y2="47.4615" gradientUnits="userSpaceOnUse">
<stop stop-color="#AFB6E5"/>
<stop offset="0.1449" stop-color="#B6BCE8"/>
<stop offset="0.3485" stop-color="#C8CDF1"/>
<stop offset="0.5808" stop-color="#E5E9FF"/>
<stop offset="0.8551" stop-color="#F5F6FF"/>
<stop offset="1" stop-color="white"/>
</linearGradient>
<linearGradient id="paint1_linear_4210_805" x1="74.1646" y1="83.5426" x2="26.5369" y2="3.1498" gradientUnits="userSpaceOnUse">
<stop offset="0.0909" stop-color="#4088AF"/>
<stop offset="0.5" stop-color="#3882AD"/>
<stop offset="0.691" stop-color="#4EB6DD"/>
<stop offset="0.798" stop-color="#58CFF3"/>
<stop offset="1" stop-color="#3888B7"/>
</linearGradient>
<linearGradient id="paint2_linear_4210_805" x1="65.932" y1="21.0614" x2="12.4275" y2="88.6461" gradientUnits="userSpaceOnUse">
<stop stop-color="#0082C5"/>
<stop offset="0.3301" stop-color="#2D7CB7"/>
<stop offset="0.6313" stop-color="#5277AB"/>
<stop offset="0.6752" stop-color="#5B76A9"/>
<stop offset="0.7464" stop-color="#7375A2"/>
<stop offset="0.8361" stop-color="#9A7397"/>
<stop offset="0.9398" stop-color="#D06F88"/>
<stop offset="1" stop-color="#F36D7E"/>
</linearGradient>
</defs>
</svg>
